<?xml version="1.0" standalone="no"?><!DOCTYPE svg PUBLIC "-//W3C//DTD SVG 1.1//EN" "http://www.w3.org/Graphics/SVG/1.1/DTD/svg11.dtd"><svg t="1621584102167" class="icon" viewBox="0 0 1024 1024" version="1.1" xmlns="http://www.w3.org/2000/svg" p-id="2455" xmlns:xlink="http://www.w3.org/1999/xlink" width="200" height="200"><defs><style type="text/css"></style></defs><path d="M425.173333 917.333333l-74.666666-149.333333H204.586667L170.666667 734.08V204.586667L204.586667 170.666667h614.826666L853.333333 204.586667v529.493333L819.413333 768H523.52z m-203.093333-192h154.88l53.333333 106.666667 70.186667-106.666667h301.44l8.746667-8.746666V222.08l-8.746667-8.746667H222.08l-8.746667 8.746667v494.506667z" p-id="2456"></path><path d="M405.333333 533.333333a64 64 0 1 1 64-64 64 64 0 0 1-64 64z m0-85.333333a21.333333 21.333333 0 1 0 21.333334 21.333333 21.333333 21.333333 0 0 0-21.333334-21.333333zM618.666667 533.333333a64 64 0 1 1 64-64 64 64 0 0 1-64 64z m0-85.333333a21.333333 21.333333 0 1 0 21.333333 21.333333 21.333333 21.333333 0 0 0-21.333333-21.333333z" p-id="2457"></path></svg>