<?xml version="1.0" standalone="no"?><!DOCTYPE svg PUBLIC "-//W3C//DTD SVG 1.1//EN" "http://www.w3.org/Graphics/SVG/1.1/DTD/svg11.dtd"><svg t="1621584175593" class="icon" viewBox="0 0 1024 1024" version="1.1" xmlns="http://www.w3.org/2000/svg" p-id="4525" xmlns:xlink="http://www.w3.org/1999/xlink" width="200" height="200"><defs><style type="text/css"></style></defs><path d="M163.84 389.12a40.96 40.96 0 0 1 40.96 40.96v471.04a40.96 40.96 0 0 1-40.96 40.96H133.12A71.68 71.68 0 0 1 61.44 870.4v-409.6A71.68 71.68 0 0 1 133.12 389.12H163.84zM553.2672 81.92a82.00192 82.00192 0 0 1 82.00192 82.00192V348.16a40.96 40.96 0 0 0 40.96 40.96h163.328a122.94144 122.94144 0 0 1 117.94432 157.7984l-91.136 307.2A122.9824 122.9824 0 0 1 748.4416 942.08H307.24096A40.98048 40.98048 0 0 1 266.24 901.12V430.08a40.96 40.96 0 0 1 40.96-40.96h20.54144a80.0768 80.0768 0 0 0 77.37344-59.43296l44.99456-168.5504A106.76224 106.76224 0 0 1 553.2672 81.92zM143.36 450.56h-10.24a10.24 10.24 0 0 0-10.07616 8.3968L122.88 460.8v409.6a10.24 10.24 0 0 0 8.3968 10.07616L133.12 880.64H143.36V450.56zM553.2672 143.36c-19.39456 0-36.49536 12.30848-42.8032 30.39232l-1.00352 3.23584-44.99456 168.5504a141.5168 141.5168 0 0 1-131.39968 104.91904L327.68 450.56v430.08h420.7616a61.56288 61.56288 0 0 0 57.87648-40.48896l1.14688-3.52256 91.136-307.2a61.50144 61.50144 0 0 0-55.41888-78.76608L839.53664 450.56h-163.328a102.4 102.4 0 0 1-102.31808-97.95584L573.8496 348.16V163.92192c0-11.34592-9.216-20.56192-20.56192-20.56192z" fill="#131415" p-id="4526"></path></svg>